<?xml version="1.0" standalone="no"?>
<!DOCTYPE svg PUBLIC "-//W3C//DTD SVG 20010904//EN"
 "http://www.w3.org/TR/2001/REC-SVG-20010904/DTD/svg10.dtd">
<svg version="1.0" xmlns="http://www.w3.org/2000/svg"
 width="1023.000000pt" height="1024.000000pt" viewBox="0 0 1023.000000 1024.000000"
 preserveAspectRatio="xMidYMid meet">
<metadata>
Created by potrace 1.16, written by Peter Selinger 2001-2019
</metadata>
<g transform="translate(0.000000,1024.000000) scale(0.100000,-0.100000)"
fill="#000000" stroke="none">
<path d="M5325 8989 c-1027 -32 -1883 -70 -2227 -99 l-118 -10 -128 -73 c-71
-40 -211 -115 -311 -167 l-183 -95 6 -60 c5 -54 27 -339 71 -930 8 -110 33
-434 55 -720 22 -286 47 -612 55 -725 8 -113 22 -288 30 -390 8 -102 19 -259
25 -350 6 -91 14 -178 17 -194 l5 -29 172 7 c94 4 315 19 491 34 l320 28 7
-45 c4 -25 6 -46 5 -48 -1 -1 -74 -18 -162 -37 -196 -44 -317 -79 -412 -119
-64 -26 -73 -33 -73 -56 -1 -21 -14 -35 -68 -71 -186 -124 -539 -376 -777
-556 -121 -92 -174 -138 -184 -161 -8 -18 -18 -33 -23 -33 -21 0 -74 147 -152
424 -25 87 -48 161 -50 164 -6 6 -281 -17 -302 -25 -19 -7 -19 -1 22 -264 35
-223 35 -231 18 -245 -11 -8 -82 -60 -159 -116 -300 -218 -395 -290 -395 -298
0 -15 338 -588 414 -703 10 -15 23 -27 28 -27 6 0 41 23 78 50 57 42 72 49 91
41 13 -4 79 -21 145 -36 l122 -28 168 128 c93 71 190 146 216 167 l46 39 -5
57 c-7 78 -42 370 -48 396 -4 18 27 43 206 166 361 247 521 360 616 432 74 56
95 68 110 60 10 -5 37 -13 61 -17 30 -5 42 -12 42 -24 0 -25 131 -1311 147
-1439 3 -30 11 -56 17 -58 9 -3 495 -64 511 -64 5 0 -4 -239 -11 -297 -5 -41
-7 -43 -40 -43 -30 0 -34 -3 -34 -27 0 -67 -52 -699 -58 -704 -4 -3 -65 -13
-137 -23 -71 -9 -162 -22 -201 -28 l-71 -10 -7 -162 c-3 -88 -9 -207 -13 -264
-6 -101 -5 -103 17 -109 20 -5 293 -116 570 -230 46 -19 93 -41 104 -49 29
-20 95 -17 306 11 102 14 271 37 375 50 105 14 200 27 212 30 l23 5 -21 53
c-53 134 -169 309 -282 425 -91 93 -159 146 -267 207 -47 27 -87 50 -88 51 -2
1 12 150 32 331 52 485 50 430 16 438 -26 6 -30 11 -30 38 1 49 28 318 33 323
2 3 118 20 258 40 140 19 340 47 444 63 400 61 575 84 580 79 3 -3 15 -100 27
-217 20 -197 21 -212 5 -224 -15 -10 -16 -20 -7 -73 16 -101 60 -452 60 -484
0 -34 6 -32 -302 -104 l-28 -6 0 -264 0 -264 73 -17 c39 -9 167 -38 282 -65
488 -116 612 -144 651 -148 23 -2 117 10 210 28 93 17 230 42 304 56 74 14
139 29 144 34 10 10 -68 160 -131 248 -137 192 -338 337 -573 413 -75 24 -85
30 -92 56 -7 27 -55 490 -60 583 -3 41 -6 45 -30 48 -16 2 -28 8 -28 13 0 5
-9 111 -21 235 -16 167 -18 228 -10 234 7 3 49 12 94 19 152 23 352 62 360 70
5 5 -1 109 -12 232 -21 227 -38 429 -67 799 -8 113 -26 336 -39 495 -12 160
-21 292 -19 294 2 2 201 8 443 14 l440 11 3 74 3 74 36 -83 35 -84 45 2 c30 1
63 12 104 35 99 57 415 248 486 294 41 28 72 41 85 38 13 -3 59 20 138 71 65
42 122 72 127 68 4 -4 17 -55 30 -113 13 -58 23 -106 24 -107 1 -2 359 -31
509 -41 79 -5 120 -4 122 3 2 5 22 136 44 290 22 154 53 372 70 484 16 112 30
209 30 216 0 18 -16 23 -152 40 -189 24 -172 13 -164 103 4 42 18 163 31 267
13 105 22 192 20 193 -4 5 -327 43 -331 40 -2 -3 -64 -510 -64 -530 0 -7 -34
-8 -112 -3 -193 13 -172 19 -179 -50 -37 -339 -51 -450 -58 -453 -12 -4 -282
-160 -371 -214 -41 -25 -151 -92 -245 -150 -167 -102 -280 -168 -289 -168 -3
0 -6 10 -8 23 l-3 22 -435 0 c-239 0 -465 1 -501 3 l-66 2 -6 48 c-3 26 -3 49
-1 51 2 2 86 17 186 32 448 68 524 80 537 84 10 4 12 21 7 78 -18 214 -76
2059 -100 3190 -1 20 -7 29 -21 32 -69 14 -938 56 -1110 53 -60 0 -231 -5
-380 -9z m1069 -93 c248 -9 350 -17 356 -25 4 -7 10 -137 14 -289 6 -260 10
-409 36 -1377 12 -434 37 -1130 49 -1345 4 -80 5 -148 2 -151 -3 -4 -109 -21
-236 -38 -126 -18 -293 -41 -370 -51 -327 -45 -925 -122 -1245 -160 -190 -22
-433 -52 -540 -65 -374 -47 -1180 -130 -1185 -122 -1 1 -7 99 -14 217 -7 118
-23 370 -36 560 -14 190 -42 631 -64 980 -22 349 -47 739 -56 865 -8 127 -22
334 -30 460 -8 127 -20 279 -26 338 -6 60 -9 110 -7 113 11 11 1147 65 1763
84 705 22 1129 23 1589 6z m-3423 -278 c5 -84 13 -216 19 -293 5 -77 26 -383
45 -680 107 -1672 144 -2240 154 -2311 l7 -62 -45 -6 c-25 -3 -116 -12 -201
-21 -85 -8 -176 -17 -202 -20 -43 -5 -48 -4 -52 17 -3 13 -14 151 -26 308 -50
673 -61 822 -85 1120 -14 173 -39 500 -55 725 -39 532 -68 887 -80 1004 -6 52
-9 95 -8 96 2 1 48 26 103 55 55 29 142 75 192 102 51 27 97 47 103 43 6 -4 9
-2 8 4 -3 10 103 81 111 74 2 -1 8 -72 12 -155z m5741 -1719 c57 -7 106 -14
110 -18 7 -6 -47 -490 -56 -498 -3 -3 -50 0 -106 6 -55 6 -107 11 -115 11 -20
0 -19 29 10 286 14 120 25 220 25 221 0 5 27 3 132 -8z m208 -594 c80 -9 150
-17 156 -20 8 -2 7 -30 -3 -96 -7 -51 -14 -94 -16 -95 -3 -3 -402 37 -406 41
-2 2 0 47 4 100 l7 97 56 -6 c32 -3 122 -13 202 -21z m-60 -212 c179 -16 190
-18 190 -38 0 -11 -9 -78 -20 -150 -11 -71 -20 -133 -20 -136 0 -3 -12 -4 -27
-2 -16 2 -103 10 -195 17 -92 7 -170 15 -173 18 -3 2 3 75 12 162 13 120 20
155 30 152 7 -3 99 -13 203 -23z m-780 -380 c0 -7 4 -13 8 -13 7 0 20 -26 47
-100 14 -38 17 -33 -47 -74 l-26 -17 -55 110 -56 111 42 24 41 25 23 -27 c13
-15 23 -33 23 -39z m743 46 c150 -10 177 -15 177 -28 1 -34 -44 -366 -49 -373
-7 -8 -366 14 -374 22 -4 4 20 293 33 398 0 2 8 1 18 -2 9 -2 97 -10 195 -17z
m-887 -160 c25 -50 43 -97 41 -104 -7 -17 -554 -355 -575 -355 -4 0 -31 44
-60 99 -44 83 -50 100 -36 105 9 3 86 50 172 103 280 173 397 243 404 243 4 0
28 -41 54 -91z m-763 -311 c4 -46 7 -98 7 -115 l0 -33 -200 0 -200 0 0 49 c0
26 -3 76 -6 109 l-7 61 164 4 c90 1 180 4 200 5 l36 2 6 -82z m-463 39 c0 -19
3 -68 6 -110 l7 -77 -182 0 -181 0 0 68 c0 37 -3 84 -6 104 l-7 37 144 4 c79
1 161 4 182 5 36 2 37 1 37 -31z m-436 -29 c3 -29 13 -147 21 -263 24 -329 73
-950 111 -1403 13 -161 24 -305 24 -320 l0 -27 -233 -38 c-325 -53 -760 -121
-1037 -163 -308 -45 -1068 -154 -1100 -157 -30 -2 -24 -46 -70 570 -17 230
-44 573 -61 763 -55 632 -59 675 -59 731 l0 57 66 7 c36 4 67 5 70 3 3 -4 35
-337 49 -518 11 -138 55 -595 60 -616 l5 -22 87 20 c121 26 201 51 182 55 -9
2 -45 -3 -80 -11 -35 -8 -64 -14 -65 -13 -1 1 -11 112 -23 247 -12 135 -33
353 -46 485 -13 132 -27 274 -30 315 l-7 76 189 22 c929 112 1762 219 1873
241 25 5 50 9 57 10 7 1 14 -20 17 -51z m-3396 -599 c11 -18 11 -24 -4 -40
-11 -13 -22 -16 -32 -10 -9 5 -23 5 -31 1 -9 -4 -33 -16 -54 -26 -21 -10 -33
-20 -27 -22 6 -2 22 3 35 12 14 10 25 12 25 6 0 -10 84 -7 134 5 12 3 15 2 9
-1 -19 -8 -16 -24 3 -17 14 5 84 -51 84 -68 0 -4 -48 -42 -107 -86 -60 -44
-158 -116 -218 -160 -61 -45 -116 -83 -122 -85 -6 -2 -44 44 -85 102 l-74 105
73 50 c258 178 369 253 373 254 3 1 11 -8 18 -20z m-1152 -224 c23 -94 56
-217 73 -275 16 -57 29 -105 28 -106 -1 -1 -38 -4 -82 -7 l-80 -7 -35 71 c-35
70 -38 72 -82 54 -20 -8 -19 -10 -71 240 -19 94 -33 172 -30 175 4 5 211 28
227 26 5 -1 28 -78 52 -171z m647 -137 c32 -37 129 -169 125 -172 -1 -1 -30
-23 -63 -47 -89 -67 -285 -209 -289 -209 -1 0 -15 31 -30 69 -15 39 -40 88
-56 109 l-29 40 157 116 c86 63 159 116 161 116 2 0 13 -10 24 -22z m-783
-237 c11 -22 17 -48 14 -58 -4 -13 -3 -14 4 -5 7 10 12 8 24 -10 15 -23 13
-25 -159 -148 -199 -144 -412 -290 -422 -290 -3 0 -16 19 -28 41 -12 23 -17
36 -9 30 7 -6 17 -7 21 -3 5 4 5 1 1 -5 -4 -7 -3 -19 1 -27 7 -13 13 -13 43 1
47 22 48 23 26 39 -11 8 -15 14 -9 14 6 0 16 -7 23 -15 11 -13 17 -11 50 15
21 17 41 30 45 30 5 0 32 19 61 43 90 73 222 167 233 167 6 0 11 4 11 8 0 4
12 15 28 24 34 21 87 68 79 69 -4 1 -10 2 -14 3 -22 4 -34 21 -31 41 4 18 1
21 -14 17 -10 -2 -18 -9 -18 -15 0 -6 -2 -8 -5 -5 -8 8 6 39 15 33 5 -3 12 0
16 6 4 8 3 9 -4 5 -7 -4 -12 -1 -12 6 0 10 -2 10 -9 0 -4 -8 -11 -13 -15 -13
-23 3 -30 0 -17 -8 10 -6 10 -10 1 -16 -6 -4 -9 -13 -6 -21 3 -8 0 -11 -10 -7
-16 6 -19 23 -4 23 6 0 10 5 10 11 0 8 -4 8 -14 0 -18 -15 -14 -64 5 -69 11
-3 10 -1 -1 7 -9 7 -10 11 -3 11 6 0 14 -4 17 -8 6 -11 -33 -76 -41 -68 -3 3
0 12 6 20 10 12 8 19 -8 35 -13 13 -16 21 -8 24 7 2 9 8 4 12 -9 10 -30 -9
-33 -31 -2 -10 3 -14 13 -10 13 5 14 4 3 -9 -18 -21 -33 -19 -27 5 3 11 2 20
-2 20 -13 0 -71 -52 -66 -60 3 -4 -3 -14 -13 -21 -15 -13 -16 -12 -3 4 7 9 9
17 4 17 -5 0 -18 -8 -29 -17 -20 -18 -30 -25 -91 -64 -18 -12 -33 -22 -33 -24
0 -2 14 -2 30 0 17 2 30 -1 30 -6 0 -6 -12 -9 -27 -7 -22 2 -27 -1 -25 -14 2
-13 -2 -16 -13 -12 -12 5 -13 9 -4 20 7 8 7 14 1 14 -5 0 -15 -6 -21 -14 -6
-7 -38 -30 -70 -50 -52 -33 -58 -40 -55 -67 3 -25 1 -27 -10 -17 -8 7 -10 15
-5 16 5 2 9 8 9 14 0 6 -6 5 -15 -2 -14 -11 -14 -15 -1 -35 14 -21 14 -23 -4
-18 -17 5 -37 39 -28 48 1 2 57 41 124 88 67 47 195 139 284 206 90 67 167
121 172 121 4 0 17 -18 28 -39z m450 -113 c6 -24 18 -65 26 -93 18 -65 50
-259 59 -355 3 -41 9 -83 12 -94 5 -18 4 -18 -27 0 -47 28 -118 109 -174 200
-160 259 -226 369 -226 376 0 4 72 8 160 8 l159 0 11 -42z m-376 -42 c-4 -9
-13 -15 -20 -12 -7 3 -16 2 -18 -3 -3 -4 8 -7 24 -7 19 0 26 4 23 13 -11 29 8
10 32 -32 15 -24 23 -50 19 -56 -4 -7 -3 -9 3 -6 14 9 54 -58 47 -77 -3 -8 -1
-17 5 -21 7 -3 8 0 5 9 -10 27 5 18 20 -12 l15 -28 -159 -107 c-88 -59 -162
-107 -165 -107 -4 0 -3 5 1 12 4 7 3 8 -5 4 -6 -4 -9 -11 -6 -15 4 -7 -241
-177 -264 -183 -9 -3 -151 224 -151 240 0 4 48 40 108 80 59 40 150 104 202
142 256 190 304 218 284 166z m225 -333 c53 -86 59 -99 39 -87 -7 4 -8 3 -4
-4 4 -6 13 -9 20 -6 7 3 17 -3 20 -13 4 -10 3 -19 -3 -21 -5 -2 -45 -27 -88
-56 -282 -190 -515 -346 -518 -346 -1 0 -6 7 -9 16 -4 12 -2 15 9 11 8 -4 17
-1 21 5 4 7 3 8 -4 4 -7 -4 -12 -3 -12 1 0 5 20 15 44 22 25 7 53 22 63 34 16
20 16 20 0 8 -9 -8 -20 -11 -23 -8 -4 3 -15 -3 -27 -14 -27 -25 -64 -25 -72 1
-6 20 -25 19 -25 -1 0 -6 4 -8 9 -5 5 3 11 -1 15 -9 10 -26 -11 -26 -29 1 -14
21 -14 28 -3 42 11 15 11 15 -3 4 -16 -12 -27 0 -75 89 -2 4 94 73 214 153
119 80 255 172 302 204 47 33 86 58 86 58 1 -1 24 -38 53 -83z m4111 -763 c6
-74 14 -145 17 -157 4 -18 -2 -23 -51 -37 -30 -9 -68 -19 -84 -22 l-29 -6 -16
144 c-18 154 -20 185 -11 176 6 -7 124 30 139 43 17 17 23 -6 35 -141z m-1797
-245 l-8 -80 -80 -12 c-43 -7 -80 -11 -80 -10 -1 1 1 45 4 97 l6 95 73 7 c40
3 76 9 80 13 11 11 13 -25 5 -110z m1881 -97 c6 -103 42 -430 52 -479 5 -29 0
-31 -143 -62 l-62 -14 -6 51 c-19 173 -57 497 -61 527 l-6 35 89 21 c140 33
129 40 137 -79z m-1834 -54 c0 -27 -69 -667 -75 -690 -4 -19 -18 -24 -92 -38
-106 -19 -123 -20 -123 -3 0 32 69 710 73 713 1 1 47 8 102 17 55 8 103 15
108 16 4 0 7 -6 7 -15z m2036 -538 c154 -52 305 -147 405 -254 78 -83 212
-285 196 -293 -7 -4 -82 -19 -167 -34 -85 -14 -194 -35 -242 -44 -64 -13 -90
-15 -96 -7 -5 6 -19 40 -31 76 -55 156 -130 257 -247 335 -70 47 -141 79 -289
131 -117 42 -119 43 -71 43 38 1 219 32 371 64 49 11 107 5 171 -17z m-1991
-263 c122 -63 269 -201 363 -341 60 -89 134 -223 128 -230 -4 -3 -46 -11 -94
-18 -48 -6 -206 -28 -351 -48 -146 -20 -270 -35 -276 -32 -7 2 -16 26 -20 53
-11 74 -63 230 -101 304 -45 86 -119 168 -200 221 l-65 43 53 7 c29 4 145 23
258 42 113 19 216 32 230 30 14 -3 48 -17 75 -31z"/>
<path d="M6352 8750 c-51 -5 -96 -10 -98 -13 -9 -8 -28 -217 -21 -224 6 -5
296 13 303 19 1 2 4 53 5 113 l2 110 -49 1 c-27 1 -91 -2 -142 -6z m160 -100
l-4 -80 -41 34 c-23 18 -69 51 -101 72 l-60 39 80 6 c43 3 90 6 104 7 25 2 25
2 22 -78z m-120 -17 l113 -78 -118 -9 c-65 -5 -120 -6 -123 -3 -6 5 6 167 12
167 2 0 54 -35 116 -77z"/>
<path d="M3410 8644 c-19 -2 -59 -7 -89 -10 l-54 -6 7 -116 c3 -63 8 -117 9
-119 4 -4 341 28 346 33 3 2 -6 52 -20 112 l-24 107 -70 1 c-39 1 -86 0 -105
-2z m159 -61 c24 -97 30 -128 26 -132 -5 -4 -278 -30 -283 -26 -1 1 -6 41 -9
88 l-6 85 54 6 c30 3 68 8 84 9 17 2 51 5 77 6 47 1 47 1 57 -36z"/>
<path d="M5920 8234 c-85 -8 -213 -20 -285 -26 l-130 -13 -3 -59 -3 -59 48 6
c26 3 168 16 316 28 l267 23 0 58 c0 68 26 63 -210 42z"/>
<path d="M4225 7994 c-132 -12 -261 -24 -287 -25 l-48 -3 0 -53 0 -53 33 0
c17 -1 173 12 345 27 l312 27 0 53 0 53 -57 -1 c-32 -1 -166 -12 -298 -25z"/>
<path d="M5853 7789 c-98 -16 -273 -95 -256 -114 5 -4 2 -5 -5 -1 -18 11 -81
-33 -161 -112 -117 -117 -172 -257 -172 -440 0 -110 17 -185 60 -270 33 -64
106 -146 121 -137 5 3 7 0 5 -8 -7 -16 121 -92 190 -112 146 -45 356 -18 469
59 69 47 166 147 166 172 0 5 24 37 54 72 96 113 136 219 136 362 0 174 -73
328 -202 425 -129 98 -252 130 -405 104z m220 -59 c186 -57 317 -221 336 -419
10 -99 -1 -168 -38 -248 -111 -237 -370 -338 -594 -230 -157 75 -253 205 -277
377 -22 153 26 298 134 406 69 69 119 98 204 118 82 20 160 19 235 -4z m-654
-617 c26 -95 88 -198 158 -264 55 -53 112 -85 200 -115 68 -23 90 -26 173 -22
87 4 124 13 225 54 19 7 19 6 5 -12 -14 -17 -14 -18 2 -6 10 8 16 18 15 23 -1
5 14 19 33 31 l35 22 -20 -24 c-44 -54 -64 -69 -90 -64 -16 3 -24 0 -23 -7 2
-6 -4 -14 -12 -16 -13 -4 -13 -3 0 6 22 16 3 13 -75 -9 -106 -30 -191 -24
-298 21 -27 11 -55 18 -63 15 -10 -4 -12 -2 -8 6 5 8 2 9 -10 5 -9 -4 -15 -3
-12 2 5 8 -36 42 -49 41 -3 0 -17 13 -32 30 -18 22 -29 28 -38 20 -9 -8 -12
-4 -10 15 2 14 0 25 -4 25 -4 0 -14 11 -21 25 -7 13 -17 22 -22 19 -4 -3 -8 1
-8 9 0 9 -14 46 -32 84 -37 80 -38 82 -43 198 l-3 90 7 -80 c5 -44 14 -99 20
-122z"/>
<path d="M4004 7625 c-83 -22 -156 -59 -217 -108 -31 -26 -62 -47 -68 -47 -6
0 -52 -42 -102 -92 -75 -75 -100 -109 -134 -178 -53 -110 -67 -172 -67 -295 2
-303 197 -505 488 -505 110 0 215 24 307 71 79 39 150 89 143 100 -3 5 1 6 9
3 8 -3 18 0 23 7 5 8 3 10 -6 4 -9 -5 -11 -4 -6 3 4 7 11 12 16 12 12 0 66 46
141 120 169 167 205 400 99 628 -57 121 -202 243 -333 278 -66 17 -226 17
-293 -1z m311 -55 c190 -65 325 -261 325 -470 0 -297 -278 -533 -568 -481
-225 40 -382 220 -399 456 -17 247 157 473 397 514 72 13 177 4 245 -19z"/>
<path d="M5685 6439 c-228 -26 -858 -95 -1377 -151 -195 -21 -208 -24 -208
-43 0 -11 9 -135 20 -275 11 -140 20 -258 20 -263 0 -4 10 -5 23 -2 26 6 1436
176 1670 202 l157 17 0 30 c0 17 -7 126 -15 241 -8 116 -15 225 -15 243 0 20
-5 31 -12 31 -7 -1 -125 -15 -263 -30z m119 -106 c3 -21 6 -57 6 -80 0 -42 0
-42 -42 -47 -24 -3 -315 -35 -648 -71 -333 -36 -639 -69 -680 -74 -41 -5 -78
-7 -81 -5 -4 2 -10 30 -14 61 -3 32 -9 67 -11 79 -5 19 0 22 48 27 29 3 238
27 463 52 420 48 852 92 916 94 35 1 37 -1 43 -36z"/>
</g>
</svg>
